<svg xmlns="http://www.w3.org/2000/svg" viewBox="0 0 1930 2574" width="482" height="643" role="img" aria-label="NoVo"><g transform="translate(0.000000,2574.000000) scale(0.100000,-0.100000)" fill="#22D3EE"><path d="M14335 25449 c-113 -39 -440 -208 -685 -354 -135 -81 -355 -213 -490
-293 -135 -80 -267 -161 -295 -178 -27 -18 -275 -175 -550 -350 -606 -385
-1026 -654 -1160 -744 -104 -70 -268 -172 -575 -360 -409 -249 -1642 -1070
-1718 -1143 -46 -44 -54 -83 -50 -235 3 -133 3 -134 32 -159 28 -24 31 -24
190 -21 161 3 161 3 336 122 662 452 1247 835 1645 1079 143 88 375 234 515
325 466 303 593 384 780 502 102 65 250 158 330 209 288 183 283 171 -167
-386 -438 -543 -543 -683 -708 -938 -87 -134 -313 -480 -590 -900 -481 -729
-610 -939 -775 -1260 -100 -195 -315 -607 -678 -1300 -268 -512 -432 -856
-582 -1215 -84 -201 -187 -448 -230 -550 -155 -368 -410 -979 -480 -1150 -167
-407 -205 -506 -275 -705 -41 -115 -123 -349 -183 -520 -555 -1571 -588 -1665
-668 -1945 -106 -372 -153 -537 -201 -705 -25 -88 -62 -212 -82 -275 -47 -151
-53 -152 -152 -33 -253 304 -394 472 -549 653 -97 113 -246 288 -330 390 -370
446 -616 710 -777 837 -119 92 -128 95 -305 91 -202 -4 -198 0 -198 -204 0
-166 6 -187 73 -235 159 -115 404 -369 711 -738 88 -107 258 -307 376 -445
435 -510 894 -1070 911 -1113 6 -16 -10 -88 -62 -275 -39 -139 -90 -329 -114
-423 -24 -93 -64 -249 -90 -345 -25 -96 -80 -308 -121 -470 -42 -162 -100
-387 -130 -500 -145 -563 -207 -808 -239 -945 -19 -82 -50 -213 -69 -290 -18
-77 -45 -189 -60 -250 -54 -229 -140 -590 -192 -805 -61 -253 -241 -970 -273
-1090 -52 -200 -82 -312 -111 -425 -15 -60 -37 -144 -48 -185 -26 -95 -124
-459 -152 -565 -360 -1357 -652 -2277 -937 -2954 -121 -289 -191 -410 -291
-503 -88 -83 -137 -60 -223 105 -176 338 -337 976 -444 1757 -9 63 -20 140
-25 170 -5 30 -11 80 -15 110 -3 30 -10 87 -15 125 -126 928 -143 2077 -49
3335 21 288 40 519 49 620 6 58 17 177 25 265 9 88 22 221 30 295 8 74 20 182
26 240 13 128 84 714 104 865 8 61 26 198 40 305 14 107 30 227 35 265 5 39
17 120 25 180 8 61 24 175 35 253 12 79 25 176 30 215 5 40 23 164 40 277 17
113 35 234 39 270 5 36 25 171 45 300 20 129 41 267 47 305 6 39 17 111 25
160 33 212 63 407 79 510 9 61 20 133 25 160 6 28 17 95 25 150 9 55 20 125
25 155 5 30 28 168 50 305 42 253 63 383 99 600 11 66 25 152 32 190 6 39 17
104 24 145 8 41 25 145 40 230 40 240 56 331 65 380 5 25 17 88 25 140 22 133
40 237 64 365 11 61 25 137 30 170 5 33 17 101 26 150 19 105 26 141 59 330
50 282 55 311 71 390 8 44 20 107 25 140 5 33 16 98 25 145 23 122 30 164 65
360 17 96 37 207 45 245 7 39 20 108 29 155 34 191 47 261 71 390 14 74 30
160 35 190 5 30 21 114 34 185 14 72 34 182 45 245 11 63 27 153 36 200 9 47
27 146 40 220 13 74 31 176 40 225 9 50 20 113 25 140 5 28 20 115 34 195 14
80 31 183 40 230 8 47 24 137 35 200 12 63 25 140 31 170 12 66 66 361 81 445
14 80 35 188 60 315 11 58 25 130 29 160 5 30 16 91 24 135 8 44 31 166 51
270 46 249 100 530 130 685 114 587 129 713 130 1050 0 295 0 295 -25 344 -45
86 -56 91 -251 94 -157 3 -173 2 -214 -18 -97 -47 -225 -234 -467 -680 -222
-408 -265 -491 -372 -712 -303 -624 -550 -1202 -826 -1933 -240 -636 -561
-1637 -710 -2210 -23 -88 -52 -198 -64 -245 -13 -47 -43 -157 -66 -245 -23
-88 -64 -239 -90 -335 -100 -366 -197 -752 -234 -925 -8 -38 -31 -140 -50
-225 -246 -1078 -283 -1248 -321 -1460 -9 -52 -23 -124 -31 -160 -7 -36 -18
-92 -24 -125 -5 -33 -28 -157 -50 -275 -22 -118 -47 -251 -55 -295 -8 -44 -26
-141 -40 -215 -14 -74 -30 -160 -35 -190 -58 -319 -89 -492 -94 -525 -8 -47
-28 -164 -51 -290 -9 -49 -38 -220 -65 -380 -27 -159 -52 -303 -55 -320 -2
-16 -23 -142 -45 -280 -23 -137 -59 -360 -81 -495 -41 -256 -49 -303 -73 -460
-8 -52 -27 -169 -41 -260 -34 -222 -41 -267 -60 -390 -8 -58 -22 -150 -31
-205 -8 -55 -19 -129 -24 -165 -5 -36 -14 -94 -20 -130 -18 -120 -61 -424 -70
-495 -5 -38 -16 -122 -25 -185 -23 -168 -45 -334 -55 -420 -5 -41 -16 -133
-25 -205 -9 -71 -20 -166 -25 -210 -5 -44 -18 -161 -29 -260 -37 -325 -92
-836 -101 -944 -9 -104 -24 -242 -55 -531 -17 -164 -31 -301 -45 -440 -5 -52
-23 -219 -40 -370 -17 -151 -35 -315 -40 -365 -8 -86 -19 -183 -40 -360 -30
-249 -40 -340 -50 -435 -6 -58 -18 -159 -25 -225 -8 -66 -26 -230 -40 -365
-13 -135 -32 -312 -40 -395 -9 -82 -20 -190 -25 -240 -5 -49 -17 -162 -27
-250 -9 -90 -17 -248 -17 -362 -1 -202 -1 -202 27 -230 27 -28 29 -28 170 -31
128 -2 145 -1 175 18 54 33 51 19 117 690 27 278 57 567 80 775 9 72 20 173
26 225 5 52 15 133 20 180 6 47 14 121 19 165 24 220 70 634 90 800 9 77 30
273 50 475 9 88 19 186 55 515 8 72 19 184 25 250 6 66 17 181 25 255 8 74 26
243 40 375 14 132 27 260 30 285 3 25 12 108 21 185 24 224 32 292 49 430 9
72 20 166 25 210 8 76 20 167 55 425 9 63 20 149 25 190 5 41 23 170 40 285
17 116 35 242 40 280 9 68 45 306 74 495 8 52 17 115 21 140 3 25 13 86 20
135 8 50 26 164 40 255 15 91 42 262 61 380 19 118 41 256 49 305 27 167 95
590 101 620 3 17 27 161 54 320 73 436 172 998 225 1285 9 47 20 108 25 135 5
28 16 86 24 130 8 44 17 94 20 110 3 17 23 125 45 240 22 116 52 273 66 350
14 77 32 174 40 215 8 41 24 125 36 185 22 117 64 314 104 485 13 58 42 186
64 285 22 99 61 270 86 380 25 110 55 241 66 290 10 50 26 117 34 150 7 33 26
112 41 175 29 126 37 156 84 335 17 66 56 212 86 325 30 113 63 237 74 275 11
39 33 122 50 185 16 63 43 165 59 225 16 61 38 144 49 185 37 140 84 305 117
415 18 61 59 196 90 300 252 842 645 1916 964 2634 22 47 66 147 99 221 168
378 497 1036 559 1118 28 37 43 34 43 -7 0 -16 -34 -210 -76 -432 -103 -553
-104 -558 -114 -614 -14 -76 -36 -198 -59 -320 -12 -60 -26 -137 -32 -170 -6
-33 -17 -91 -24 -130 -20 -102 -42 -225 -65 -355 -11 -63 -24 -140 -30 -170
-6 -30 -22 -120 -36 -200 -44 -253 -52 -303 -69 -395 -9 -49 -25 -139 -35
-200 -10 -60 -33 -186 -50 -280 -17 -93 -35 -195 -40 -225 -9 -54 -18 -104
-59 -325 -12 -60 -26 -137 -32 -170 -10 -58 -26 -142 -54 -290 -8 -38 -18 -97
-24 -130 -25 -138 -92 -504 -101 -555 -16 -90 -69 -381 -80 -440 -36 -204 -46
-259 -66 -365 -8 -44 -19 -105 -24 -135 -5 -30 -25 -143 -44 -250 -20 -107
-41 -224 -47 -260 -6 -36 -21 -123 -35 -195 -13 -71 -40 -224 -60 -340 -20
-115 -51 -300 -70 -410 -75 -430 -165 -970 -224 -1330 -22 -137 -45 -275 -50
-305 -5 -30 -16 -100 -25 -155 -8 -55 -20 -125 -25 -155 -6 -30 -17 -100 -25
-155 -9 -55 -22 -140 -30 -190 -8 -49 -26 -164 -40 -255 -14 -91 -30 -192 -35
-225 -5 -33 -16 -107 -25 -165 -9 -58 -22 -145 -30 -195 -7 -49 -18 -121 -24
-160 -28 -195 -43 -296 -51 -350 -19 -116 -31 -201 -40 -270 -4 -38 -24 -182
-44 -320 -20 -137 -40 -284 -46 -325 -14 -114 -40 -304 -55 -415 -8 -55 -19
-138 -24 -185 -13 -106 -38 -301 -51 -400 -12 -92 -36 -293 -49 -420 -6 -52
-17 -153 -26 -225 -34 -305 -66 -647 -105 -1125 -107 -1317 -106 -2766 1
-3760 19 -178 74 -615 98 -780 91 -614 151 -897 278 -1300 163 -517 292 -703
521 -751 31 -6 132 -9 250 -7 198 3 198 3 278 42 62 31 97 58 166 128 121 123
119 125 139 -72 24 -245 98 -383 238 -449 54 -25 62 -26 279 -29 258 -4 280 0
389 77 178 125 631 717 1026 1338 136 215 194 309 384 618 307 500 878 1481
1665 2865 206 361 228 398 245 405 30 11 35 -44 49 -504 12 -435 17 -542 45
-921 18 -263 56 -631 79 -785 5 -33 12 -78 15 -100 6 -44 32 -169 71 -340 78
-348 224 -686 336 -780 83 -70 117 -79 316 -83 181 -4 184 -4 236 22 138 67
203 283 231 756 3 58 10 164 15 235 5 72 17 355 25 630 20 626 50 1201 65
1239 16 43 23 29 80 -159 82 -270 165 -459 272 -619 339 -504 875 -816 1563
-908 134 -18 732 -18 870 0 370 48 675 140 945 285 868 469 1525 1358 2070
2802 184 486 366 1107 445 1515 8 41 19 98 25 125 21 102 59 336 71 430 57
468 71 695 71 1155 0 639 -36 963 -147 1355 -175 616 -537 978 -1098 1100 -32
6 -45 29 -28 49 13 15 222 110 410 185 172 70 165 60 169 239 5 224 -3 232
-211 232 -150 0 -192 -10 -391 -94 -515 -219 -1195 -563 -1544 -782 -244 -153
-561 -384 -912 -665 -549 -439 -1277 -1176 -1759 -1779 -146 -182 -180 -220
-199 -220 -26 0 -6 106 98 525 181 730 551 1814 834 2443 25 56 46 104 46 107
0 3 50 114 111 247 880 1920 1877 3218 3100 4035 619 414 1121 644 1659 759
189 41 356 74 423 83 34 5 123 18 197 30 162 24 310 44 525 71 88 11 248 32
355 46 259 34 376 48 555 69 192 22 227 31 262 67 28 29 28 31 31 168 4 155
-5 188 -58 215 -46 24 -351 16 -530 -12 -126 -21 -250 -38 -445 -62 -44 -6
-133 -17 -197 -26 -65 -8 -171 -22 -235 -30 -341 -44 -696 -93 -758 -105 -27
-6 -113 -22 -190 -36 -500 -93 -805 -194 -1210 -399 -1216 -616 -2170 -1528
-3020 -2885 -190 -304 -194 -310 -210 -310 -20 0 -19 38 4 196 46 305 56 840
18 959 -25 76 -69 139 -113 161 -60 29 -349 28 -414 -3 -330 -153 -910 -1034
-1644 -2493 -334 -664 -526 -1084 -1036 -2265 -75 -174 -252 -577 -375 -855
-62 -140 -122 -277 -133 -303 -38 -86 -52 -72 -161 159 -53 110 -122 249 -153
309 -34 63 -58 121 -58 139 0 76 667 1203 1027 1735 80 118 152 229 159 247
10 23 14 76 14 164 0 201 -9 210 -208 210 -148 0 -190 -14 -239 -76 -40 -51
-325 -478 -384 -574 -25 -41 -97 -158 -159 -260 -156 -255 -310 -515 -419
-707 -50 -88 -98 -164 -106 -167 -28 -11 -45 6 -122 127 -43 67 -129 193 -191
280 -62 87 -117 168 -122 181 -11 30 -9 37 224 846 102 355 225 764 274 910
92 272 338 973 582 1660 32 91 88 248 124 350 65 188 117 323 221 575 32 77
77 187 100 245 24 58 79 191 123 295 43 105 217 519 385 920 380 908 343 830
904 1905 712 1363 664 1275 910 1660 131 205 586 901 1011 1545 144 218 210
304 969 1249 142 176 135 160 131 335 -3 136 -5 149 -31 199 -30 57 -54 72
-115 72 -50 0 -70 14 -56 37 21 33 969 603 1004 603 40 0 34 -18 -109 -330
-35 -74 -109 -238 -165 -365 -57 -126 -157 -349 -223 -495 -185 -406 -538
-1237 -671 -1580 -57 -145 -57 -145 -57 -318 0 -229 -6 -222 200 -222 206 0
195 -8 279 211 30 79 83 214 119 299 91 217 235 563 298 711 53 126 171 393
274 619 31 69 121 269 200 445 79 176 162 361 185 410 23 50 73 160 110 245
37 85 102 230 144 323 99 217 106 248 106 475 0 282 -9 292 -267 292 -132 -1
-168 -4 -218 -21z m-2569 -10663 c20 -80 -123 -766 -261 -1256 -167 -590 -497
-1586 -699 -2105 -8 -22 -58 -157 -111 -300 -53 -143 -114 -305 -135 -360 -21
-55 -62 -161 -90 -235 -228 -594 -333 -853 -437 -1075 -502 -1065 -955 -1991
-994 -2030 -20 -20 -20 -20 -34 -1 -8 10 -17 39 -20 65 -13 92 -108 583 -140
716 -8 33 -26 110 -40 170 -14 61 -41 167 -60 236 -19 69 -35 137 -35 151 0
24 32 100 177 428 59 133 137 311 303 690 56 129 127 291 157 360 66 150 268
615 328 755 632 1471 1428 2983 1924 3655 110 149 154 185 167 136z m3359
-3231 c436 -128 727 -462 865 -992 133 -507 156 -1001 80 -1703 -145 -1339
-775 -3043 -1461 -3951 -464 -614 -1012 -1015 -1587 -1158 -484 -121 -853 -95
-1289 89 -730 309 -1107 888 -1183 1816 -41 502 194 1428 577 2274 268 592
537 1056 900 1554 676 927 1290 1496 1982 1835 299 147 483 208 801 265 65 12
228 -3 315 -29z m-7821 -1068 c145 -221 189 -302 182 -331 -3 -13 -36 -79 -72
-147 -36 -68 -210 -410 -386 -759 -177 -349 -339 -665 -360 -702 -38 -67 -68
-88 -68 -48 0 23 133 552 232 920 11 41 42 163 69 270 28 107 63 245 79 305
15 61 45 173 65 250 61 236 97 359 111 383 23 36 47 14 148 -141z m573 -1012
c62 -119 201 -440 245 -566 37 -107 43 -84 -112 -434 -56 -126 -160 -365 -232
-530 -130 -299 -177 -409 -281 -645 -47 -107 -321 -737 -423 -970 -85 -196
-267 -606 -310 -700 -49 -105 -49 -105 -49 -283 0 -235 -7 -227 201 -227 206
0 208 2 303 241 27 68 67 165 89 214 107 245 252 576 312 715 60 138 160 366
325 745 29 66 99 226 155 355 187 429 198 455 224 513 44 98 68 90 97 -30 62
-257 132 -643 174 -958 41 -311 46 -265 -43 -430 -105 -195 -322 -578 -720
-1275 -207 -360 -394 -689 -417 -730 -23 -41 -67 -118 -97 -170 -277 -480
-313 -542 -500 -860 -418 -713 -817 -1361 -1058 -1719 -322 -480 -724 -981
-785 -981 -30 0 -64 48 -86 121 -36 116 -28 309 26 666 9 54 20 130 25 168 48
334 247 1208 390 1715 336 1186 695 2303 908 2820 22 52 92 226 157 385 200
495 368 902 459 1114 51 117 868 1733 913 1804 35 56 51 46 110 -68z m2223
-1359 c-60 -309 -76 -367 -135 -505 -99 -233 -207 -494 -310 -751 -57 -140
-138 -340 -180 -445 -42 -104 -114 -282 -160 -395 -113 -280 -141 -340 -159
-340 -23 0 -25 15 -41 375 -14 330 -14 330 37 430 28 55 127 246 220 425 180
346 485 958 625 1255 47 99 97 196 112 215 26 35 26 35 29 -9 2 -24 -15 -139
-38 -255z m-386 -2629 c-1 -23 -7 -118 -13 -212 -26 -419 -47 -858 -56 -1190
-17 -603 -48 -1156 -75 -1304 -18 -101 -44 -102 -88 -3 -69 155 -154 474 -206
772 -67 388 -152 1532 -116 1575 10 12 39 15 152 15 206 0 215 6 287 208 40
110 64 165 84 190 17 21 32 -4 31 -51z"/></g></svg>